<svg width="256" height="256" viewBox="0 0 256 256" fill="none" xmlns="http://www.w3.org/2000/svg">
<path fill-rule="evenodd" clip-rule="evenodd" d="M97.8301 57.6036C114.492 40.9412 141.508 40.9412 158.17 57.6036L138.057 77.7168C132.503 72.1627 123.497 72.1627 117.943 77.7168C112.389 83.2709 112.389 92.276 117.943 97.8301L97.8301 117.943C81.1677 101.281 81.1677 74.2659 97.8301 57.6036Z" fill="black"/>
<path fill-rule="evenodd" clip-rule="evenodd" d="M117.943 97.8301L97.8301 117.943C92.276 112.389 83.271 112.389 77.7168 117.943C72.1627 123.497 72.1627 132.503 77.7169 138.057L57.6036 158.17C40.9412 141.508 40.9412 114.492 57.6036 97.8301C74.2659 81.1677 101.281 81.1677 117.943 97.8301Z" fill="black"/>
<path d="M77.7169 178.283L97.8301 158.17L57.6036 117.943L37.4903 138.057L77.7169 178.283Z" fill="black"/>
<path d="M117.943 198.396L138.057 218.51L218.51 138.057L198.396 117.943L117.943 198.396Z" fill="#0000FF"/>
<rect x="97.8301" y="117.943" width="28.4444" height="28.4444" transform="rotate(-45 97.8301 117.943)" fill="black"/>
<rect x="138.057" y="77.7168" width="28.4444" height="28.4444" transform="rotate(-45 138.057 77.7168)" fill="black"/>
<ellipse cx="47.547" cy="128" rx="14.2222" ry="14.2222" transform="rotate(-45 47.547 128)" fill="black"/>
<circle cx="208.453" cy="128" r="14.2222" transform="rotate(-45 208.453 128)" fill="#0000FF"/>
<circle cx="168.227" cy="87.7735" r="14.2222" transform="rotate(-45 168.227 87.7735)" fill="black"/>
<ellipse cx="128" cy="128" rx="14.2222" ry="14.2222" transform="rotate(-45 128 128)" fill="black"/>
<circle cx="87.7735" cy="168.227" r="14.2222" transform="rotate(-45 87.7735 168.227)" fill="black"/>
<circle cx="128" cy="208.453" r="14.2222" transform="rotate(-45 128 208.453)" fill="#0000FF"/>
</svg>
